<?xml version="1.0" encoding="UTF-8" standalone="no"?>
<!-- Created with Inkscape (http://www.inkscape.org/) -->

<svg
   width="5.3010492mm"
   height="8.4307842mm"
   viewBox="0 0 5.3010492 8.4307842"
   version="1.1"
   id="svg1"
   xml:space="preserve"
   xmlns="http://www.w3.org/2000/svg"
   xmlns:svg="http://www.w3.org/2000/svg"><defs
     id="defs1" /><g
     id="layer1"
     transform="translate(-235.38822,266.74938)"><g
       id="g12"><path
         d="m 235.5767,-265.62042 c -0.058,-0.54938 0.37273,-1.02795 0.92516,-1.02795 0.55243,0 0.98315,0.47857 0.92516,1.02795 l -0.35979,3.60503 c -0.0303,0.28948 -0.27431,0.50932 -0.56537,0.50932 -0.29106,0 -0.5351,-0.21984 -0.56537,-0.50932 z"
         id="path1-9-1-2-1-2-7"
         style="fill:#d85128;fill-opacity:1;stroke:#ffffff;stroke-width:0.202029;stroke-dasharray:none" /><path
         d="m 238.80856,-265.27308 c 0.22446,-0.50477 0.83677,-0.70387 1.31518,-0.42765 0.47842,0.27621 0.61214,0.90603 0.28724,1.35281 l -2.1141,2.94216 c -0.17096,0.23555 -0.49223,0.30393 -0.74429,0.1584 -0.25207,-0.14553 -0.35349,-0.45794 -0.23497,-0.72378 z"
         id="path1-9-1-1-9-0-4-9"
         style="fill:#d85128;fill-opacity:1;stroke:#ffffff;stroke-width:0.202029;stroke-dasharray:none" /><path
         d="m 235.48923,-259.44756 c 0,-0.56773 0.46023,-1.02796 1.02795,-1.02796 0.56772,0 1.02795,0.46023 1.02795,1.02796 0,0.56772 -0.46023,1.02795 -1.02795,1.02795 -0.56772,0 -1.02795,-0.46023 -1.02795,-1.02795 z"
         style="fill:#d85128;fill-opacity:1;stroke:#ffffff;stroke-width:0.202029;stroke-dasharray:none"
         id="path1-8-8-1-8-0" /></g></g></svg>
