<?xml version="1.0" encoding="UTF-8" standalone="no"?>
<!-- Created with Inkscape (http://www.inkscape.org/) -->

<svg
   width="10.890291mm"
   height="10.889775mm"
   viewBox="0 0 10.890291 10.889775"
   version="1.1"
   id="svg1"
   xml:space="preserve"
   inkscape:version="1.3 (0e150ed, 2023-07-21)"
   sodipodi:docname="ahoylogo.svg"
   xmlns:inkscape="http://www.inkscape.org/namespaces/inkscape"
   xmlns:sodipodi="http://sodipodi.sourceforge.net/DTD/sodipodi-0.dtd"
   xmlns="http://www.w3.org/2000/svg"
   xmlns:svg="http://www.w3.org/2000/svg"><sodipodi:namedview
     id="namedview1"
     pagecolor="#505050"
     bordercolor="#eeeeee"
     borderopacity="1"
     inkscape:showpageshadow="0"
     inkscape:pageopacity="0"
     inkscape:pagecheckerboard="0"
     inkscape:deskcolor="#505050"
     inkscape:document-units="mm"
     inkscape:zoom="6.6312195"
     inkscape:cx="893.12381"
     inkscape:cy="-988.88297"
     inkscape:window-width="1440"
     inkscape:window-height="872"
     inkscape:window-x="0"
     inkscape:window-y="0"
     inkscape:window-maximized="0"
     inkscape:current-layer="layer1" /><defs
     id="defs1" /><g
     inkscape:label="Layer 1"
     inkscape:groupmode="layer"
     id="layer1"
     transform="translate(-211.54006,271.5891)"><path
       d="m 216.98521,-271.58911 c -3.00731,-8e-5 -5.44523,2.43785 -5.44515,5.44515 2e-4,3.0071 2.43805,5.44471 5.44515,5.44463 3.00709,8e-5 5.44494,-2.43753 5.44514,-5.44463 8e-5,-3.0073 -2.43784,-5.44523 -5.44514,-5.44515 z m -1.27331,1.33067 h 10e-4 c 0.0342,2e-5 0.0681,0.001 0.10129,0.005 0.0335,0.004 0.0659,0.01 0.0982,0.0165 0.0323,0.007 0.0642,0.0155 0.0951,0.0258 0.0308,0.0104 0.0611,0.0223 0.0904,0.0357 0.0293,0.0133 0.0578,0.0282 0.0853,0.0444 0.0276,0.0162 0.054,0.0339 0.0796,0.0527 0.0256,0.0189 0.0499,0.0386 0.0734,0.0599 0.0235,0.0213 0.046,0.0442 0.0672,0.0677 0.0211,0.0236 0.0412,0.0478 0.0599,0.0734 0.0187,0.0256 0.0361,0.0522 0.0522,0.0796 0.016,0.0275 0.0307,0.0562 0.0439,0.0853 0.0132,0.0291 0.0249,0.0589 0.0351,0.0894 0.0102,0.0305 0.0188,0.0617 0.0258,0.0935 0.007,0.0318 0.012,0.0638 0.016,0.0966 0.004,0.0328 0.006,0.066 0.006,0.0997 0,0.0337 -0.001,0.068 -0.005,0.10232 l -0.35967,3.60494 c -0.004,0.0362 -0.0111,0.0712 -0.0212,0.10491 -0.0101,0.0337 -0.023,0.0659 -0.0388,0.0966 -0.0159,0.0306 -0.0344,0.0598 -0.0553,0.0868 -0.0209,0.027 -0.0445,0.0521 -0.0698,0.0749 -0.0252,0.0228 -0.0526,0.0435 -0.0816,0.0615 -0.0291,0.018 -0.0599,0.0329 -0.092,0.0455 -0.0322,0.0125 -0.0657,0.0219 -0.10025,0.0289 -0.0345,0.006 -0.0701,0.0103 -0.10646,0.0103 -0.0363,0 -0.0719,-0.003 -0.10645,-0.0103 -0.0346,-0.007 -0.0682,-0.0163 -0.10025,-0.0289 -0.0322,-0.0126 -0.063,-0.0275 -0.092,-0.0455 -0.029,-0.018 -0.0563,-0.0387 -0.0816,-0.0615 -0.0253,-0.0228 -0.0489,-0.0479 -0.0698,-0.0749 -0.0209,-0.027 -0.0395,-0.0561 -0.0553,-0.0868 -0.0159,-0.0306 -0.0287,-0.0629 -0.0388,-0.0966 -0.0101,-0.0337 -0.0172,-0.0687 -0.0212,-0.10491 l -0.35966,-3.60494 c -0.003,-0.0343 -0.005,-0.0686 -0.005,-0.10232 0,-0.0336 0.002,-0.0669 0.006,-0.0997 0.004,-0.0328 0.009,-0.0648 0.016,-0.0966 0.007,-0.0317 0.0156,-0.063 0.0258,-0.0935 0.0102,-0.0305 0.0219,-0.0603 0.0351,-0.0894 0.0132,-0.0291 0.0278,-0.0579 0.0439,-0.0853 0.0161,-0.0275 0.0335,-0.054 0.0522,-0.0796 0.0187,-0.0256 0.0387,-0.0499 0.0599,-0.0734 0.0212,-0.0235 0.0437,-0.0464 0.0672,-0.0677 0.0235,-0.0213 0.0478,-0.0411 0.0734,-0.0599 0.0256,-0.0188 0.0526,-0.0365 0.0801,-0.0527 0.0276,-0.0162 0.056,-0.031 0.0853,-0.0444 0.0293,-0.0134 0.059,-0.0254 0.0899,-0.0357 0.0309,-0.0103 0.0628,-0.0188 0.0951,-0.0258 0.0323,-0.007 0.0652,-0.0125 0.0987,-0.0165 0.0332,-0.003 0.0666,-0.005 0.10077,-0.005 z m 3.68039,0.82269 v 5.2e-4 c 0.0319,0 0.0641,6.1e-4 0.0961,0.004 0.0321,0.003 0.0637,0.009 0.0956,0.015 0.0319,0.007 0.0636,0.0143 0.0951,0.0243 0.0315,0.01 0.0627,0.0215 0.0935,0.0351 0.0309,0.0136 0.0616,0.0292 0.0915,0.0465 0.0299,0.0173 0.0586,0.0359 0.0858,0.0558 0.0272,0.0198 0.0526,0.0407 0.077,0.063 0.0245,0.0223 0.0477,0.0459 0.0692,0.0703 0.0216,0.0244 0.0423,0.0492 0.061,0.0754 0.0187,0.0262 0.036,0.0533 0.0517,0.0811 0.0158,0.0278 0.0297,0.0567 0.0424,0.0858 0.0128,0.0291 0.0236,0.0587 0.0336,0.0889 0.01,0.0302 0.0178,0.061 0.0248,0.092 0.007,0.0309 0.012,0.062 0.015,0.0935 0.003,0.0315 0.004,0.0633 0.005,0.0951 0,0.0318 -6.2e-4,0.0638 -0.004,0.0956 -0.003,0.0318 -0.008,0.0636 -0.0145,0.0951 -0.006,0.0315 -0.0143,0.0631 -0.0243,0.0941 -0.01,0.0311 -0.0214,0.0617 -0.0346,0.092 -0.0133,0.0303 -0.0287,0.0597 -0.0455,0.0889 -0.0168,0.0292 -0.035,0.0579 -0.0553,0.0858 l -2.11408,2.94245 c -0.0214,0.0294 -0.0452,0.056 -0.0708,0.0801 -0.0257,0.0241 -0.0532,0.046 -0.0822,0.0646 -0.0291,0.0186 -0.0599,0.034 -0.0915,0.047 -0.0316,0.013 -0.0644,0.0235 -0.0977,0.0305 -0.0333,0.007 -0.0672,0.0109 -0.10129,0.0119 -0.0341,0.001 -0.0682,-6.9e-4 -0.10232,-0.006 -0.0341,-0.005 -0.0681,-0.0132 -0.10128,-0.0248 -0.0333,-0.0115 -0.0662,-0.0268 -0.0977,-0.045 -0.0315,-0.0182 -0.0606,-0.039 -0.0873,-0.062 -0.0267,-0.023 -0.0508,-0.0479 -0.0724,-0.0749 -0.0215,-0.027 -0.0401,-0.0557 -0.0563,-0.0858 -0.0162,-0.03 -0.0298,-0.0617 -0.0403,-0.094 -0.0105,-0.0324 -0.0177,-0.0654 -0.0227,-0.0992 -0.005,-0.0338 -0.007,-0.0683 -0.005,-0.10284 0.002,-0.0344 0.006,-0.0691 0.0145,-0.10335 0.008,-0.0343 0.0198,-0.0681 0.0346,-0.10129 l 1.49086,-3.30212 c 0.014,-0.0316 0.0296,-0.0618 0.0465,-0.091 0.017,-0.0291 0.0352,-0.0571 0.0548,-0.0837 0.0195,-0.0266 0.0405,-0.052 0.0625,-0.076 0.0219,-0.024 0.0446,-0.0464 0.0687,-0.0677 0.0241,-0.0213 0.0489,-0.0413 0.0749,-0.0599 0.026,-0.0186 0.053,-0.036 0.0806,-0.0517 0.0277,-0.0157 0.0563,-0.0301 0.0853,-0.0429 0.029,-0.0128 0.0588,-0.0236 0.0889,-0.0336 0.0302,-0.01 0.0605,-0.0178 0.0915,-0.0248 0.031,-0.007 0.0624,-0.0115 0.0941,-0.0155 0.0316,-0.004 0.0637,-0.006 0.0956,-0.006 z m -3.66386,5.35006 c 0.0355,0 0.0703,10e-4 0.10491,0.005 0.0345,0.003 0.0688,0.008 0.10232,0.0155 0.0335,0.007 0.066,0.0153 0.0982,0.0253 0.0322,0.01 0.0639,0.0216 0.0946,0.0346 0.0307,0.013 0.0608,0.0276 0.0899,0.0434 0.0292,0.0158 0.0573,0.0332 0.0847,0.0517 0.0274,0.0185 0.0537,0.038 0.0791,0.0589 0.0254,0.021 0.0497,0.0434 0.0729,0.0667 0.0233,0.0233 0.0457,0.0475 0.0667,0.0729 0.0209,0.0254 0.0404,0.0518 0.0589,0.0791 0.0185,0.0273 0.0359,0.0557 0.0517,0.0848 0.0158,0.0291 0.0304,0.0591 0.0434,0.0899 0.013,0.0308 0.0241,0.0624 0.0341,0.0946 0.01,0.0322 0.0183,0.0647 0.0253,0.0982 0.007,0.0334 0.012,0.0677 0.016,0.10232 0.003,0.0345 0.005,0.0694 0.005,0.1049 0,0.0355 -0.001,0.0708 -0.005,0.10542 -0.004,0.0345 -0.009,0.0683 -0.016,0.10181 -0.007,0.0335 -0.0153,0.0665 -0.0253,0.0987 -0.01,0.0322 -0.0211,0.0633 -0.0341,0.094 -0.013,0.0307 -0.0276,0.0608 -0.0434,0.0899 -0.0159,0.0291 -0.0332,0.0573 -0.0517,0.0847 -0.0185,0.0274 -0.038,0.0537 -0.0589,0.0791 -0.021,0.0254 -0.0434,0.0501 -0.0667,0.0734 -0.0233,0.0232 -0.0475,0.0451 -0.0729,0.0661 -0.0254,0.0209 -0.0518,0.0409 -0.0791,0.0594 -0.0274,0.0185 -0.0556,0.0354 -0.0847,0.0512 -0.0291,0.0158 -0.0591,0.0304 -0.0899,0.0434 -0.0308,0.013 -0.0624,0.0246 -0.0946,0.0346 -0.0322,0.01 -0.0647,0.0183 -0.0982,0.0253 -0.0334,0.007 -0.0678,0.0115 -0.10232,0.0155 -0.0345,0.003 -0.0694,0.005 -0.10491,0.005 -0.0355,0 -0.0708,-10e-4 -0.10542,-0.005 -0.0345,-0.004 -0.0683,-0.009 -0.1018,-0.0155 -0.0335,-0.007 -0.0665,-0.0153 -0.0987,-0.0253 -0.0322,-0.01 -0.0638,-0.0216 -0.0946,-0.0346 -0.0307,-0.013 -0.0603,-0.0276 -0.0894,-0.0434 -0.0292,-0.0159 -0.0574,-0.0327 -0.0848,-0.0512 -0.0274,-0.0184 -0.0542,-0.0385 -0.0796,-0.0594 -0.0254,-0.0209 -0.0501,-0.0428 -0.0734,-0.0661 -0.0232,-0.0233 -0.0447,-0.048 -0.0656,-0.0734 -0.0209,-0.0254 -0.0409,-0.0518 -0.0594,-0.0791 -0.0185,-0.0273 -0.0354,-0.0557 -0.0512,-0.0847 -0.0158,-0.0291 -0.0304,-0.0591 -0.0434,-0.0899 -0.013,-0.0308 -0.0246,-0.0618 -0.0346,-0.094 -0.01,-0.0322 -0.0183,-0.0652 -0.0253,-0.0987 -0.006,-0.0335 -0.0115,-0.0672 -0.0155,-0.10181 -0.004,-0.0345 -0.006,-0.0699 -0.006,-0.10542 0,-0.0355 0.002,-0.0703 0.006,-0.1049 0.004,-0.0345 0.008,-0.0688 0.0155,-0.10232 0.007,-0.0335 0.0153,-0.066 0.0253,-0.0982 0.01,-0.0322 0.0216,-0.0638 0.0346,-0.0946 0.013,-0.0307 0.0276,-0.0608 0.0434,-0.0899 0.0159,-0.0291 0.0327,-0.0574 0.0512,-0.0848 0.0185,-0.0274 0.0385,-0.0537 0.0594,-0.0791 0.0209,-0.0254 0.0423,-0.0496 0.0656,-0.0729 0.0233,-0.0233 0.048,-0.0457 0.0734,-0.0667 0.0254,-0.0209 0.0523,-0.0404 0.0796,-0.0589 0.0274,-0.0185 0.0557,-0.0359 0.0848,-0.0517 0.0291,-0.0158 0.0587,-0.0304 0.0894,-0.0434 0.0308,-0.013 0.0624,-0.0246 0.0946,-0.0346 0.0322,-0.01 0.0652,-0.0183 0.0987,-0.0253 0.0335,-0.007 0.0673,-0.0115 0.1018,-0.0155 0.0345,-0.003 0.0699,-0.005 0.10542,-0.005 z"
       style="fill:#56286b;stroke-width:0.674849;stroke-linejoin:bevel"
       id="path210" /></g></svg>
